<mxfile host="65bd71144e">
    <diagram id="vnuYw7EP30Aa-bbVlAoq" name="Page-1">
        <mxGraphModel dx="863" dy="445" grid="1" gridSize="10" guides="1" tooltips="1" connect="1" arrows="1" fold="1" page="1" pageScale="1" pageWidth="850" pageHeight="1100" math="0" shadow="0">
            <root>
                <mxCell id="0"/>
                <mxCell id="1" parent="0"/>
                <mxCell id="2" value="Routes (Views)" style="shape=folder;fontStyle=1;tabWidth=110;tabHeight=30;tabPosition=left;html=1;boundedLbl=1;labelInHeader=1;container=1;collapsible=0;" parent="1" vertex="1">
                    <mxGeometry x="290" y="50" width="150" height="100" as="geometry"/>
                </mxCell>
                <mxCell id="3" value="" style="html=1;strokeColor=none;resizeWidth=1;resizeHeight=1;fillColor=none;part=1;connectable=0;allowArrows=0;deletable=0;" parent="2" vertex="1">
                    <mxGeometry width="150" height="70" relative="1" as="geometry">
                        <mxPoint y="30" as="offset"/>
                    </mxGeometry>
                </mxCell>
                <mxCell id="4" value="ViewModels" style="shape=folder;fontStyle=1;tabWidth=110;tabHeight=30;tabPosition=left;html=1;boundedLbl=1;labelInHeader=1;container=1;collapsible=0;" parent="1" vertex="1">
                    <mxGeometry x="510" y="160" width="150" height="100" as="geometry"/>
                </mxCell>
                <mxCell id="5" value="" style="html=1;strokeColor=none;resizeWidth=1;resizeHeight=1;fillColor=none;part=1;connectable=0;allowArrows=0;deletable=0;" parent="4" vertex="1">
                    <mxGeometry width="150" height="70" relative="1" as="geometry">
                        <mxPoint y="30" as="offset"/>
                    </mxGeometry>
                </mxCell>
                <mxCell id="8" value="Stores" style="shape=folder;fontStyle=1;tabWidth=110;tabHeight=30;tabPosition=left;html=1;boundedLbl=1;labelInHeader=1;container=1;collapsible=0;" parent="1" vertex="1">
                    <mxGeometry x="640" y="310" width="150" height="100" as="geometry"/>
                </mxCell>
                <mxCell id="9" value="" style="html=1;strokeColor=none;resizeWidth=1;resizeHeight=1;fillColor=none;part=1;connectable=0;allowArrows=0;deletable=0;" parent="8" vertex="1">
                    <mxGeometry width="150" height="70" relative="1" as="geometry">
                        <mxPoint y="30" as="offset"/>
                    </mxGeometry>
                </mxCell>
                <mxCell id="10" value="Models" style="shape=folder;fontStyle=1;tabWidth=110;tabHeight=30;tabPosition=left;html=1;boundedLbl=1;labelInHeader=1;container=1;collapsible=0;" parent="1" vertex="1">
                    <mxGeometry x="420" y="310" width="150" height="100" as="geometry"/>
                </mxCell>
                <mxCell id="11" value="" style="html=1;strokeColor=none;resizeWidth=1;resizeHeight=1;fillColor=none;part=1;connectable=0;allowArrows=0;deletable=0;" parent="10" vertex="1">
                    <mxGeometry width="150" height="70" relative="1" as="geometry">
                        <mxPoint y="30" as="offset"/>
                    </mxGeometry>
                </mxCell>
                <mxCell id="12" value="Components" style="shape=folder;fontStyle=1;tabWidth=110;tabHeight=30;tabPosition=left;html=1;boundedLbl=1;labelInHeader=1;container=1;collapsible=0;" parent="1" vertex="1">
                    <mxGeometry x="70" y="160" width="150" height="100" as="geometry"/>
                </mxCell>
                <mxCell id="13" value="" style="html=1;strokeColor=none;resizeWidth=1;resizeHeight=1;fillColor=none;part=1;connectable=0;allowArrows=0;deletable=0;" parent="12" vertex="1">
                    <mxGeometry width="150" height="70" relative="1" as="geometry">
                        <mxPoint y="30" as="offset"/>
                    </mxGeometry>
                </mxCell>
                <mxCell id="14" value="Depends" style="endArrow=open;startArrow=none;endFill=0;startFill=0;endSize=8;html=1;verticalAlign=bottom;dashed=1;labelBackgroundColor=none;exitX=0;exitY=0;exitDx=150;exitDy=65;exitPerimeter=0;entryX=0;entryY=0;entryDx=0;entryDy=0;entryPerimeter=0;" parent="1" source="2" target="4" edge="1">
                    <mxGeometry width="160" relative="1" as="geometry">
                        <mxPoint x="340" y="260" as="sourcePoint"/>
                        <mxPoint x="500" y="260" as="targetPoint"/>
                        <mxPoint as="offset"/>
                    </mxGeometry>
                </mxCell>
                <mxCell id="29" value="Utils" style="shape=folder;fontStyle=1;tabWidth=110;tabHeight=30;tabPosition=left;html=1;boundedLbl=1;labelInHeader=1;container=1;collapsible=0;" vertex="1" parent="1">
                    <mxGeometry x="220" y="310" width="150" height="100" as="geometry"/>
                </mxCell>
                <mxCell id="30" value="" style="html=1;strokeColor=none;resizeWidth=1;resizeHeight=1;fillColor=none;part=1;connectable=0;allowArrows=0;deletable=0;" vertex="1" parent="29">
                    <mxGeometry width="150" height="70" relative="1" as="geometry">
                        <mxPoint y="30" as="offset"/>
                    </mxGeometry>
                </mxCell>
                <mxCell id="31" value="Depends" style="endArrow=open;startArrow=none;endFill=0;startFill=0;endSize=8;html=1;verticalAlign=bottom;dashed=1;labelBackgroundColor=none;exitX=0;exitY=0;exitDx=0;exitDy=65;exitPerimeter=0;entryX=0;entryY=0;entryDx=110;entryDy=0;entryPerimeter=0;" edge="1" parent="1" source="2" target="12">
                    <mxGeometry width="160" relative="1" as="geometry">
                        <mxPoint x="420" y="225" as="sourcePoint"/>
                        <mxPoint x="590" y="225" as="targetPoint"/>
                        <mxPoint as="offset"/>
                    </mxGeometry>
                </mxCell>
                <mxCell id="32" value="Depends" style="endArrow=open;startArrow=none;endFill=0;startFill=0;endSize=8;html=1;verticalAlign=bottom;dashed=1;labelBackgroundColor=none;exitX=0.75;exitY=1;exitDx=0;exitDy=0;exitPerimeter=0;entryX=-0.02;entryY=0.58;entryDx=0;entryDy=0;entryPerimeter=0;" edge="1" parent="1" source="12" target="29">
                    <mxGeometry width="160" relative="1" as="geometry">
                        <mxPoint x="310" y="125" as="sourcePoint"/>
                        <mxPoint x="230" y="235" as="targetPoint"/>
                        <mxPoint as="offset"/>
                    </mxGeometry>
                </mxCell>
                <mxCell id="35" value="Depends" style="endArrow=open;startArrow=none;endFill=0;startFill=0;endSize=8;html=1;verticalAlign=bottom;dashed=1;labelBackgroundColor=none;entryX=0;entryY=0;entryDx=55;entryDy=0;entryPerimeter=0;exitX=0.057;exitY=1.03;exitDx=0;exitDy=0;exitPerimeter=0;" edge="1" parent="1" source="2" target="29">
                    <mxGeometry width="160" relative="1" as="geometry">
                        <mxPoint x="345" y="150" as="sourcePoint"/>
                        <mxPoint x="440" y="365" as="targetPoint"/>
                        <mxPoint as="offset"/>
                    </mxGeometry>
                </mxCell>
                <mxCell id="37" value="Depends" style="endArrow=open;startArrow=none;endFill=0;startFill=0;endSize=8;html=1;verticalAlign=bottom;dashed=1;labelBackgroundColor=none;entryX=0;entryY=0;entryDx=55;entryDy=0;entryPerimeter=0;exitX=0.433;exitY=1.02;exitDx=0;exitDy=0;exitPerimeter=0;" edge="1" parent="1" source="4" target="10">
                    <mxGeometry width="160" relative="1" as="geometry">
                        <mxPoint x="580" y="260" as="sourcePoint"/>
                        <mxPoint x="355" y="310" as="targetPoint"/>
                        <mxPoint as="offset"/>
                    </mxGeometry>
                </mxCell>
                <mxCell id="38" value="Depends" style="endArrow=open;startArrow=none;endFill=0;startFill=0;endSize=8;html=1;verticalAlign=bottom;dashed=1;labelBackgroundColor=none;entryX=0.143;entryY=-0.02;entryDx=0;entryDy=0;entryPerimeter=0;exitX=0.943;exitY=1.01;exitDx=0;exitDy=0;exitPerimeter=0;" edge="1" parent="1" source="2" target="10">
                    <mxGeometry width="160" relative="1" as="geometry">
                        <mxPoint x="365" y="170" as="sourcePoint"/>
                        <mxPoint x="365" y="320" as="targetPoint"/>
                        <mxPoint as="offset"/>
                    </mxGeometry>
                </mxCell>
                <mxCell id="39" value="Depends" style="endArrow=open;startArrow=none;endFill=0;startFill=0;endSize=8;html=1;verticalAlign=bottom;dashed=1;labelBackgroundColor=none;exitX=0.75;exitY=1;exitDx=0;exitDy=0;exitPerimeter=0;" edge="1" parent="1" source="4" target="8">
                    <mxGeometry width="160" relative="1" as="geometry">
                        <mxPoint x="400.9499999999998" y="162" as="sourcePoint"/>
                        <mxPoint x="430" y="320" as="targetPoint"/>
                        <mxPoint as="offset"/>
                    </mxGeometry>
                </mxCell>
                <mxCell id="40" value="Depends" style="endArrow=open;startArrow=none;endFill=0;startFill=0;endSize=8;html=1;verticalAlign=bottom;dashed=1;labelBackgroundColor=none;entryX=-0.023;entryY=0.1;entryDx=0;entryDy=0;entryPerimeter=0;exitX=0;exitY=0;exitDx=150;exitDy=82.5;exitPerimeter=0;" edge="1" parent="1" source="12" target="10">
                    <mxGeometry width="160" relative="1" as="geometry">
                        <mxPoint x="355" y="160" as="sourcePoint"/>
                        <mxPoint x="305" y="320" as="targetPoint"/>
                        <mxPoint as="offset"/>
                    </mxGeometry>
                </mxCell>
            </root>
        </mxGraphModel>
    </diagram>
</mxfile>